<svg width="385" height="385" viewBox="0 0 385 385" fill="none" xmlns="http://www.w3.org/2000/svg">
<rect width="385" height="385" rx="30" fill="url(#paint0_radial_6_4)"/>
<path d="M29.696 299V265.496H36.992V292.52H49.76V299H29.696ZM56.09 299L67.13 265.496H76.154L87.05 299H79.466L77.066 291.032H65.882L63.482 299H56.09ZM67.61 284.84H75.29L71.546 272.12H71.306L67.61 284.84ZM106.695 299.576C103.687 299.576 101.063 298.936 98.8231 297.656C96.6151 296.376 94.9031 294.472 93.6871 291.944C92.4711 289.416 91.8631 286.264 91.8631 282.488C91.8631 278.712 92.4711 275.528 93.6871 272.936C94.9031 270.312 96.6151 268.328 98.8231 266.984C101.063 265.608 103.687 264.92 106.695 264.92C109.767 264.92 112.311 265.56 114.327 266.84C116.375 268.12 118.007 270.104 119.223 272.792L112.935 276.056C112.519 274.648 111.815 273.528 110.823 272.696C109.863 271.832 108.487 271.4 106.695 271.4C104.551 271.4 102.823 272.104 101.511 273.512C100.231 274.888 99.5911 276.904 99.5911 279.56V284.936C99.5911 287.56 100.231 289.576 101.511 290.984C102.823 292.392 104.551 293.096 106.695 293.096C108.487 293.096 109.911 292.616 110.967 291.656C112.055 290.664 112.855 289.48 113.367 288.104L119.319 291.56C118.071 294.088 116.423 296.056 114.375 297.464C112.327 298.872 109.767 299.576 106.695 299.576ZM127.305 299V265.496H134.601V278.84H147.369V265.496H154.665V299H147.369V285.272H134.601V299H127.305ZM164.919 299V265.496H172.215V292.52H184.983V299H164.919ZM191.313 299L202.353 265.496H211.377L222.273 299H214.689L212.289 291.032H201.105L198.705 299H191.313ZM202.833 284.84H210.513L206.769 272.12H206.529L202.833 284.84ZM229.788 299V265.496H237.756L246.924 281.336L250.141 288.056H250.284V265.496H257.148V299H249.181L240.012 283.16L236.796 276.44H236.652V299H229.788ZM29.696 354V320.496H36.992V333.84H49.76V320.496H57.056V354H49.76V340.272H36.992V354H29.696ZM80.2704 354.576C77.0704 354.576 74.5104 354.08 72.5904 353.088C70.6704 352.064 69.2784 350.496 68.4144 348.384C67.5504 346.272 67.1184 343.568 67.1184 340.272V320.496H74.2224V341.04C74.2224 342.608 74.4144 343.92 74.7984 344.976C75.2144 346 75.8704 346.784 76.7664 347.328C77.6624 347.84 78.8304 348.096 80.2704 348.096C81.7104 348.096 82.8624 347.84 83.7264 347.328C84.6224 346.784 85.2784 346 85.6944 344.976C86.1104 343.92 86.3184 342.608 86.3184 341.04V320.496H93.4224V340.272C93.4224 343.568 92.9904 346.272 92.1264 348.384C91.2624 350.496 89.8704 352.064 87.9504 353.088C86.0304 354.08 83.4704 354.576 80.2704 354.576ZM103.519 354V320.496H110.815V347.52H123.583V354H103.519ZM131.852 354V320.496H139.58L147.788 336.192H147.884L155.996 320.496H163.772V354H156.908V332.016H156.764L154.316 336.912L147.788 348.768L141.404 336.96L138.86 331.68H138.716V354H131.852ZM174.06 354V320.496H196.86V326.976H181.356V333.84H194.652V340.272H181.356V347.52H196.86V354H174.06ZM209.84 354.528C208.4 354.528 207.328 354.16 206.624 353.424C205.952 352.688 205.616 351.776 205.616 350.688V349.728C205.616 348.608 205.952 347.696 206.624 346.992C207.328 346.256 208.4 345.888 209.84 345.888C211.28 345.888 212.336 346.256 213.008 346.992C213.712 347.696 214.064 348.608 214.064 349.728V350.688C214.064 351.776 213.712 352.688 213.008 353.424C212.336 354.16 211.28 354.528 209.84 354.528Z" fill="white"/>
<defs>
<radialGradient id="paint0_radial_6_4" cx="0" cy="0" r="1" gradientUnits="userSpaceOnUse" gradientTransform="rotate(44.6304) scale(548.019)">
<stop stop-color="#DE703B"/>
<stop offset="0.5" stop-color="#DD8542"/>
<stop offset="1" stop-color="#E3CA65"/>
</radialGradient>
</defs>
</svg>
