<svg width="30" height="30" viewBox="0 0 30 30" fill="none" xmlns="http://www.w3.org/2000/svg">
<path d="M10.625 2.5C8.55394 2.5 6.875 4.17894 6.875 6.25C6.875 8.32106 8.55394 10 10.625 10H19.375C21.4461 10 23.125 8.32106 23.125 6.25C23.125 4.17894 21.4461 2.5 19.375 2.5H10.625Z" fill="url(#paint0_radial_5_18)"/>
<path d="M19.375 11.25C17.3039 11.25 15.625 12.9289 15.625 15C15.625 17.0711 17.3039 18.75 19.375 18.75C21.4461 18.75 23.125 17.0711 23.125 15C23.125 12.9289 21.4461 11.25 19.375 11.25Z" fill="url(#paint1_radial_5_18)"/>
<path d="M6.875 15C6.875 12.9289 8.55394 11.25 10.625 11.25H14.375V18.75H10.625C8.55394 18.75 6.875 17.0711 6.875 15Z" fill="url(#paint2_radial_5_18)"/>
<path d="M10.625 20C8.55394 20 6.875 21.6789 6.875 23.75C6.875 25.8211 8.55394 27.5 10.625 27.5C12.6961 27.5 14.375 25.8211 14.375 23.75V20H10.625Z" fill="url(#paint3_radial_5_18)"/>
<defs>
<radialGradient id="paint0_radial_5_18" cx="0" cy="0" r="1" gradientUnits="userSpaceOnUse" gradientTransform="translate(6.875 2.5) rotate(24.495) scale(18.0891 13.6511)">
<stop stop-color="#15C143"/>
<stop offset="0.18" stop-color="#21A070"/>
<stop offset="0.31" stop-color="#298890"/>
<stop offset="0.37" stop-color="#2C819A"/>
<stop offset="0.435" stop-color="#2F79A5"/>
<stop offset="0.525" stop-color="#336EB3"/>
<stop offset="0.745676" stop-color="#4137D0"/>
<stop offset="1" stop-color="#FD27B6"/>
</radialGradient>
<radialGradient id="paint1_radial_5_18" cx="0" cy="0" r="1" gradientUnits="userSpaceOnUse" gradientTransform="translate(15.625 11.25) rotate(44.6304) scale(10.6757)">
<stop stop-color="#15C143"/>
<stop offset="0.18" stop-color="#21A070"/>
<stop offset="0.31" stop-color="#298890"/>
<stop offset="0.37" stop-color="#2C819A"/>
<stop offset="0.435" stop-color="#2F79A5"/>
<stop offset="0.525" stop-color="#336EB3"/>
<stop offset="0.745676" stop-color="#4137D0"/>
<stop offset="1" stop-color="#FD27B6"/>
</radialGradient>
<radialGradient id="paint2_radial_5_18" cx="0" cy="0" r="1" gradientUnits="userSpaceOnUse" gradientTransform="translate(6.875 11.25) rotate(44.6304) scale(10.6757)">
<stop stop-color="#15C143"/>
<stop offset="0.18" stop-color="#21A070"/>
<stop offset="0.31" stop-color="#298890"/>
<stop offset="0.37" stop-color="#2C819A"/>
<stop offset="0.435" stop-color="#2F79A5"/>
<stop offset="0.525" stop-color="#336EB3"/>
<stop offset="0.745676" stop-color="#4137D0"/>
<stop offset="1" stop-color="#FD27B6"/>
</radialGradient>
<radialGradient id="paint3_radial_5_18" cx="0" cy="0" r="1" gradientUnits="userSpaceOnUse" gradientTransform="translate(6.875 20) rotate(44.6304) scale(10.6757)">
<stop stop-color="#15C143"/>
<stop offset="0.18" stop-color="#21A070"/>
<stop offset="0.31" stop-color="#298890"/>
<stop offset="0.37" stop-color="#2C819A"/>
<stop offset="0.435" stop-color="#2F79A5"/>
<stop offset="0.525" stop-color="#336EB3"/>
<stop offset="0.745676" stop-color="#4137D0"/>
<stop offset="1" stop-color="#FD27B6"/>
</radialGradient>
</defs>
</svg>
