<svg width="27" height="27" viewBox="0 0 27 27" fill="none" xmlns="http://www.w3.org/2000/svg">
<path fill-rule="evenodd" clip-rule="evenodd" d="M23.7013 0C25.5219 0 27 1.47814 27 3.29875V23.7013C27 25.5219 25.5219 27 23.7013 27H3.29875C1.47814 27 0 25.5219 0 23.7013V3.29875C0 1.47814 1.47809 0 3.29875 0L23.7013 0Z" fill="url(#paint0_radial_17_44)"/>
<g clip-path="url(#clip0_17_44)">
<path d="M7.16602 9.01172C7.16602 8.31553 7.47331 7.64785 8.02029 7.15556C8.56727 6.66328 9.30913 6.38672 10.0827 6.38672H12.9993V11.6367H10.0827C9.30913 11.6367 8.56727 11.3602 8.02029 10.8679C7.47331 10.3756 7.16602 9.70791 7.16602 9.01172Z" stroke="white" stroke-width="2" stroke-linecap="round" stroke-linejoin="round"/>
<path d="M13 6.38672H15.9167C16.2997 6.38672 16.679 6.45462 17.0328 6.58653C17.3867 6.71845 17.7082 6.91181 17.9791 7.15556C18.2499 7.39932 18.4647 7.6887 18.6113 8.00717C18.7579 8.32565 18.8333 8.667 18.8333 9.01172C18.8333 9.35644 18.7579 9.69778 18.6113 10.0163C18.4647 10.3347 18.2499 10.6241 17.9791 10.8679C17.7082 11.1116 17.3867 11.305 17.0328 11.4369C16.679 11.5688 16.2997 11.6367 15.9167 11.6367H13V6.38672Z" stroke="white" stroke-width="2" stroke-linecap="round" stroke-linejoin="round"/>
<path d="M13 14.2617C13 13.917 13.0754 13.5757 13.222 13.2572C13.3686 12.9387 13.5834 12.6493 13.8543 12.4056C14.1251 12.1618 14.4466 11.9685 14.8005 11.8365C15.1544 11.7046 15.5336 11.6367 15.9167 11.6367C16.2997 11.6367 16.679 11.7046 17.0328 11.8365C17.3867 11.9685 17.7082 12.1618 17.9791 12.4056C18.2499 12.6493 18.4647 12.9387 18.6113 13.2572C18.7579 13.5757 18.8333 13.917 18.8333 14.2617C18.8333 14.6064 18.7579 14.9478 18.6113 15.2663C18.4647 15.5847 18.2499 15.8741 17.9791 16.1179C17.7082 16.3616 17.3867 16.555 17.0328 16.6869C16.679 16.8188 16.2997 16.8867 15.9167 16.8867C15.5336 16.8867 15.1544 16.8188 14.8005 16.6869C14.4466 16.555 14.1251 16.3616 13.8543 16.1179C13.5834 15.8741 13.3686 15.5847 13.222 15.2663C13.0754 14.9478 13 14.6064 13 14.2617Z" stroke="white" stroke-width="2" stroke-linecap="round" stroke-linejoin="round"/>
<path d="M7.16602 19.5117C7.16602 18.8155 7.47331 18.1478 8.02029 17.6556C8.56727 17.1633 9.30913 16.8867 10.0827 16.8867H12.9993V19.5117C12.9993 20.2079 12.6921 20.8756 12.1451 21.3679C11.5981 21.8602 10.8562 22.1367 10.0827 22.1367C9.30913 22.1367 8.56727 21.8602 8.02029 21.3679C7.47331 20.8756 7.16602 20.2079 7.16602 19.5117Z" stroke="white" stroke-width="2" stroke-linecap="round" stroke-linejoin="round"/>
<path d="M7.16602 14.2617C7.16602 13.5655 7.47331 12.8978 8.02029 12.4056C8.56727 11.9133 9.30913 11.6367 10.0827 11.6367H12.9993V16.8867H10.0827C9.30913 16.8867 8.56727 16.6102 8.02029 16.1179C7.47331 15.6256 7.16602 14.9579 7.16602 14.2617Z" stroke="white" stroke-width="2" stroke-linecap="round" stroke-linejoin="round"/>
</g>
<defs>
<radialGradient id="paint0_radial_17_44" cx="0" cy="0" r="1" gradientUnits="userSpaceOnUse" gradientTransform="rotate(44.6304) scale(38.4325)">
<stop stop-color="#DE703B"/>
<stop offset="0.5" stop-color="#DD8542"/>
<stop offset="1" stop-color="#E3CA65"/>
</radialGradient>
<clipPath id="clip0_17_44">
<rect width="20" height="18" fill="white" transform="translate(3 4.88672)"/>
</clipPath>
</defs>
</svg>
