<svg width="30" height="30" viewBox="0 0 30 30" fill="none" xmlns="http://www.w3.org/2000/svg">
<path fill-rule="evenodd" clip-rule="evenodd" d="M15 0C6.71652 0 0 6.88393 0 15.3817C0 22.1786 4.29911 27.9375 10.2589 29.9732C11.0089 30.1138 11.2835 29.6384 11.2835 29.2299C11.2835 28.8616 11.2701 27.8973 11.2634 26.6116C7.09152 27.5424 6.20759 24.5491 6.20759 24.5491C5.52455 22.7746 4.54018 22.2991 4.54018 22.2991C3.1808 21.3415 4.64062 21.3616 4.64062 21.3616C6.14732 21.4688 6.9375 22.9487 6.9375 22.9487C8.27679 25.2991 10.4464 24.6228 11.3036 24.2277C11.4375 23.2366 11.8259 22.5536 12.2545 22.1719C8.92634 21.7835 5.42411 20.4643 5.42411 14.5714C5.42411 12.8906 6.0067 11.5179 6.96429 10.4464C6.81027 10.058 6.29464 8.49107 7.11161 6.375C7.11161 6.375 8.37054 5.95982 11.2366 7.94866C12.4353 7.60714 13.7143 7.43973 14.9933 7.43304C16.2656 7.43973 17.5513 7.60714 18.75 7.94866C21.6161 5.95982 22.8683 6.375 22.8683 6.375C23.6853 8.49107 23.1696 10.058 23.0156 10.4464C23.9732 11.5246 24.5558 12.8973 24.5558 14.5714C24.5558 20.4777 21.0469 21.7768 17.7054 22.1585C18.2411 22.6339 18.7232 23.5714 18.7232 25.0045C18.7232 27.0603 18.7031 28.721 18.7031 29.2232C18.7031 29.6317 18.971 30.1138 19.7344 29.9598C25.7076 27.9308 30 22.1719 30 15.3817C30 6.88393 23.2835 0 15 0Z" fill="url(#paint0_radial_5_26)"/>
<defs>
<radialGradient id="paint0_radial_5_26" cx="0" cy="0" r="1" gradientUnits="userSpaceOnUse" gradientTransform="rotate(44.6288) scale(42.7017 42.7017)">
<stop stop-color="#15C143"/>
<stop offset="0.18" stop-color="#21A070"/>
<stop offset="0.31" stop-color="#298890"/>
<stop offset="0.37" stop-color="#2C819A"/>
<stop offset="0.435" stop-color="#2F79A5"/>
<stop offset="0.525" stop-color="#336EB3"/>
<stop offset="0.745676" stop-color="#4137D0"/>
<stop offset="1" stop-color="#FD27B6"/>
</radialGradient>
</defs>
</svg>
