<svg width="27" height="27" viewBox="0 0 27 27" fill="none" xmlns="http://www.w3.org/2000/svg">
<path fill-rule="evenodd" clip-rule="evenodd" d="M23.7013 0C25.5219 0 27 1.46856 27 3.27735V23.5475C27 25.3563 25.5219 26.8249 23.7013 26.8249H3.29875C1.47814 26.8249 0 25.3563 0 23.5475V3.27735C0 1.46856 1.47809 0 3.29875 0L23.7013 0Z" fill="url(#paint0_radial_17_43)"/>
<path d="M10.3933 26.9996H16.8901C16.8901 26.8625 16.8913 26.3736 16.8937 25.7191C16.8985 24.397 16.9057 22.4023 16.9057 21.2745C16.9057 20.0979 16.4869 19.3276 16.0165 18.9378C18.9361 18.6266 21.9997 17.5595 21.9997 12.7132C21.9997 11.3362 21.4921 10.2107 20.6521 9.3285C20.7877 9.00899 21.2377 7.72611 20.5225 5.99029C20.5225 5.99029 19.4244 5.65056 16.9225 7.28265C15.875 7.00249 14.7541 6.86299 13.6417 6.85822C12.527 6.86299 11.4061 7.00249 10.3609 7.28265C7.85782 5.65056 6.75735 5.99029 6.75735 5.99029C6.04457 7.72611 6.49336 9.00899 6.62895 9.3285C5.79138 10.2107 5.28015 11.3362 5.28015 12.7132C5.28015 17.5475 8.33902 18.6302 11.2489 18.9485C10.8745 19.2633 10.5361 19.8201 10.4173 20.6343C9.67097 20.9574 7.77252 21.5141 6.60375 19.5864C6.60375 19.5864 5.91132 18.3751 4.59615 18.2856C4.59615 18.2856 3.31699 18.2702 4.50615 19.0522C4.50615 19.0522 5.36537 19.4409 5.96175 20.8978C5.96175 20.8978 6.73104 23.3514 10.3753 22.5896C10.3813 23.6422 10.3933 26.7015 10.3933 26.9996Z" fill="white"/>
<defs>
<radialGradient id="paint0_radial_17_43" cx="0" cy="0" r="1" gradientUnits="userSpaceOnUse" gradientTransform="rotate(44.444) scale(38.3097 38.3057)">
<stop stop-color="#DE703B"/>
<stop offset="0.5" stop-color="#DD8542"/>
<stop offset="1" stop-color="#E3CA65"/>
</radialGradient>
</defs>
</svg>
