<svg width="27" height="27" viewBox="0 0 27 27" fill="none" xmlns="http://www.w3.org/2000/svg">
<g clip-path="url(#clip0_17_33)">
<path fill-rule="evenodd" clip-rule="evenodd" d="M23.7013 0C25.5219 0 27 1.47814 27 3.29875V23.7013C27 25.5219 25.5219 27 23.7013 27H3.29875C1.47814 27 0 25.5219 0 23.7013V3.29875C0 1.47814 1.47809 0 3.29875 0L23.7013 0ZM8.46181 22.3213V10.4183H4.50462V22.3213H8.46181ZM22.7285 22.3213V15.4954C22.7285 11.8392 20.7764 10.1383 18.1733 10.1383C16.0742 10.1383 15.134 11.2927 14.6075 12.1035V10.4183H10.6513C10.7038 11.5352 10.6513 22.3213 10.6513 22.3213H14.6075V15.6738C14.6075 15.318 14.6331 14.9623 14.7379 14.708C15.0234 13.9974 15.6749 13.2613 16.7679 13.2613C18.1988 13.2613 18.7722 14.3532 18.7722 15.9527V22.3213H22.7285ZM6.50995 4.6787C5.15605 4.6787 4.27148 5.5688 4.27148 6.73545C4.27148 7.87757 5.12916 8.79219 6.45759 8.79219H6.48311C7.86291 8.79219 8.72179 7.87757 8.72179 6.73545C8.69622 5.57044 7.86533 4.68123 6.50995 4.6787Z" fill="url(#paint0_radial_17_33)"/>
</g>
<defs>
<radialGradient id="paint0_radial_17_33" cx="0" cy="0" r="1" gradientUnits="userSpaceOnUse" gradientTransform="rotate(44.6304) scale(38.4325)">
<stop stop-color="#DE703B"/>
<stop offset="0.5" stop-color="#DD8542"/>
<stop offset="1" stop-color="#E3CA65"/>
</radialGradient>
<clipPath id="clip0_17_33">
<rect width="27" height="27" fill="white"/>
</clipPath>
</defs>
</svg>