<svg width="30" height="30" viewBox="0 0 30 30" fill="none" xmlns="http://www.w3.org/2000/svg">
<g clip-path="url(#clip0_5_5)">
<path fill-rule="evenodd" clip-rule="evenodd" d="M30 3.75C30 1.68029 28.3197 0 26.25 0H3.75C1.68029 0 0 1.68029 0 3.75V26.25C0 28.3197 1.68029 30 3.75 30H26.25C28.3197 30 30 28.3197 30 26.25V3.75Z" fill="url(#paint0_radial_5_5)"/>
<path d="M8.60233 10.4688H3.57733V25.5837H8.60233V10.4688Z" fill="white"/>
<path d="M6.12375 3.18048C4.40455 3.18048 3.28125 4.31075 3.28125 5.79218C3.28125 7.24249 4.37039 8.40394 6.05725 8.40394H6.08971C7.84184 8.40394 8.93244 7.24249 8.93244 5.79218C8.89992 4.31075 7.84195 3.18048 6.12375 3.18048Z" fill="white"/>
<path d="M20.9343 10.1133C18.2688 10.1133 17.0749 11.5792 16.4064 12.6088V10.4688H11.3827C11.4493 11.8866 11.3827 25.5837 11.3827 25.5837H16.4063V17.1424C16.4063 16.6906 16.4388 16.2389 16.572 15.916C16.9345 15.0137 17.7617 14.079 19.1497 14.079C20.9668 14.079 21.6947 15.4655 21.6947 17.4966V25.5837H26.7186V16.9159C26.7186 12.2731 24.2398 10.1133 20.9343 10.1133Z" fill="white"/>
</g>
<defs>
<radialGradient id="paint0_radial_5_5" cx="0" cy="0" r="1" gradientUnits="userSpaceOnUse" gradientTransform="rotate(44.6304) scale(42.7028)">
<stop stop-color="#15C143"/>
<stop offset="0.18" stop-color="#21A070"/>
<stop offset="0.31" stop-color="#298890"/>
<stop offset="0.37" stop-color="#2C819A"/>
<stop offset="0.435" stop-color="#2F79A5"/>
<stop offset="0.525" stop-color="#336EB3"/>
<stop offset="0.745676" stop-color="#4137D0"/>
<stop offset="1" stop-color="#FD27B6"/>
</radialGradient>
<clipPath id="clip0_5_5">
<rect width="30" height="30" fill="white"/>
</clipPath>
</defs>
</svg>
