<svg width="105" height="104" viewBox="0 0 105 104" fill="none" xmlns="http://www.w3.org/2000/svg">
<path d="M105 27.7876H64.5586V52.0001H105V27.7876Z" fill="#21A365"/>
<path d="M105 52H64.5586V76.2125H105V52Z" fill="#107C41"/>
<path d="M64.5586 27.7876H24.1992V52.0001H64.5586V27.7876Z" fill="#107C41"/>
<path d="M64.5586 76.2125V52H24.2812V76.2125V79.7062V95.6312C24.2812 98.2312 26.4141 100.344 29.0391 100.344H100.16C102.785 100.344 104.918 98.2312 104.918 95.6312V76.2125H64.5586Z" fill="#185B37"/>
<path d="M100.16 3.65625H64.4766V27.8688H105V8.36875C104.918 5.76875 102.785 3.65625 100.16 3.65625Z" fill="#33C481"/>
<path d="M64.5586 3.65625H29.1211C26.4961 3.65625 24.3633 5.76875 24.3633 8.36875V27.7875H64.6406V3.65625H64.5586Z" fill="#21A365"/>
<path d="M48.8086 78.4062H5.33203C2.46094 78.4062 0.0820312 76.05 0.0820312 73.2062V30.7938C0.0820312 27.95 2.46094 25.5938 5.33203 25.5938H48.8086C51.6797 25.5938 54.0586 27.95 54.0586 30.7938V73.2062C54.0586 76.05 51.7617 78.4062 48.8086 78.4062Z" fill="#17864C"/>
<path d="M33.2227 66.95L30.0234 61.1813C28.7109 58.9063 27.8906 57.3625 26.9883 55.6562H26.9062C26.168 57.3625 25.4297 58.9063 24.1992 61.1813L21.3281 66.95H15.0938L23.9531 52.2438L15.3398 37.7812H21.6562L24.8555 43.7938C25.8398 45.5813 26.5781 47.0438 27.3164 48.6688H27.4805C28.3008 46.8813 28.875 45.5813 29.8594 43.7938L33.0586 37.7812H39.293L30.5156 52L39.6211 66.95H33.2227Z" fill="white"/>
<path opacity="0.2" d="M54.7148 30.3062C54.7148 30.4687 54.7148 30.6312 54.7148 30.7937V73.2062C54.7148 76.0499 52.3359 78.4062 49.4648 78.4062H24.9375V83.0374H53.8125C56.6836 83.0374 59.0625 80.6812 59.0625 77.8374V35.4249C59.1445 32.8249 57.1758 30.6312 54.7148 30.3062Z" fill="black"/>
</svg>
