<svg width="132" height="132" viewBox="0 0 132 132" fill="none" xmlns="http://www.w3.org/2000/svg">
<path d="M50.0172 61.9398H77.1014C84.6337 61.9398 90.6441 55.7263 90.6441 48.169V22.3272C90.6441 14.9731 84.456 9.46982 77.1014 8.22717C68.0228 6.73082 58.1579 6.80688 50.0172 8.25217C38.5543 10.2812 36.4751 14.5165 36.4751 22.3527V27.8836H63.5846V36.123H26.3057C18.4189 36.123 11.5204 40.8652 9.36506 49.8683C6.87975 60.1898 6.77843 66.6312 9.36506 77.4093C11.2925 85.4235 15.8826 91.1544 23.7696 91.1544H33.0768V78.7791C33.0766 69.8271 40.8115 61.9398 50.0172 61.9398Z" fill="#347AB4"/>
<path d="M122.455 53.9787C120.502 46.1425 116.799 40.2334 108.912 40.2334H98.7435V52.2542C98.7435 61.5867 90.8307 69.4479 81.8027 69.4479H54.7182C47.3127 69.4479 41.1758 75.7886 41.1758 83.2187V109.036C41.1758 116.389 47.5664 120.701 54.7182 122.806C63.2896 125.316 71.5314 125.773 81.8024 122.806C88.6246 120.827 95.345 116.847 95.345 109.036V103.622H68.2861V95.2648H108.912C116.799 95.2648 119.716 89.7615 122.454 81.5197C125.295 73.0238 125.168 64.8578 122.455 53.9787Z" fill="#FFCA1D"/>
<path d="M48.3178 23.0983C45.6162 23.0983 43.4258 20.8834 43.4258 18.1576C43.45 15.4072 45.6162 13.1924 48.3178 13.1924C50.9952 13.1924 53.21 15.4315 53.21 18.1576C53.2098 20.8834 51.0194 23.0983 48.3178 23.0983Z" fill="white"/>
<path d="M81.1872 118.613C78.4856 118.613 76.2949 116.398 76.2949 113.672C76.3194 110.922 78.4853 108.707 81.1872 108.707C83.8646 108.707 86.0794 110.946 86.0794 113.672C86.0794 116.398 83.889 118.613 81.1872 118.613Z" fill="white"/>
</svg>
