<svg width="127" height="122" viewBox="0 0 127 122" fill="none" xmlns="http://www.w3.org/2000/svg">
<path d="M120.55 55.4537C120.55 35.1733 95.0002 18.7412 63.5 18.7412C31.9995 18.7412 6.44922 35.1733 6.44922 55.4537C6.44922 73.5271 26.7362 88.544 53.4645 91.5812V103.259H72.9265V91.6567C77.6984 91.1473 82.2747 90.2609 86.5555 89.0342L94.4307 103.259H116.426L103.19 81.8088C113.893 75.1305 120.55 65.7918 120.55 55.4537ZM28.8769 58.1892C28.8769 44.3231 48.2994 33.0979 72.2387 33.0979C96.1784 33.0979 113.854 40.7763 113.854 58.1892C113.854 67.6411 108.649 74.2248 100.048 78.262C99.5762 77.9601 99.1245 77.7149 98.7911 77.5638C96.7876 76.583 93.3311 75.583 93.3311 75.583C93.3311 75.583 110.338 74.3758 110.338 58.0948C110.338 41.8137 92.5455 41.5118 92.5455 41.5118H53.4645V80.8089C38.9121 76.7529 28.8769 68.1503 28.8769 58.1892ZM73.0835 65.4146V54.9252C84.4347 54.9252 90.3268 53.6425 90.3268 60.0754C90.3265 66.9617 82.8238 65.4146 73.0835 65.4146ZM72.9067 79.0924H78.1305C80.2518 79.0924 81.8426 81.2993 82.8439 82.714C79.6821 83.0731 76.3632 83.2425 72.9067 83.2618V79.0924Z" fill="#2167BA"/>
</svg>
