<svg width="301" height="262" viewBox="0 0 301 262" fill="none" xmlns="http://www.w3.org/2000/svg">
<g clip-path="url(#clip0_7_4)">
<path d="M271.393 136.349C271.433 168.769 258.893 199.941 236.411 223.313C235.055 224.732 233.663 226.116 232.235 227.465C230.058 229.534 227.809 231.523 225.486 233.432C203.758 251.321 176.632 261.374 148.486 261.968C147.548 261.989 146.607 262 145.662 262C123.214 262 94.9808 250.018 69.3589 233.432C67.2391 232.059 65.1381 230.655 63.0561 229.22C62.0829 228.555 61.1144 227.88 60.1506 227.197C50.2686 220.223 40.8886 212.566 32.0798 204.28C26.3123 198.87 20.9039 193.091 15.8891 186.979C-3.79798 162.711 -8.14026 140.844 19.927 136.349C23.2501 135.819 26.4753 135.251 29.6025 134.648C34.1324 133.778 38.4676 132.838 42.6081 131.829C48.1855 130.475 53.4254 129.006 58.3281 127.423C59.9772 126.892 61.5886 126.351 63.1623 125.799C86.4272 117.633 101.999 106.985 112.598 95.4308C114.395 93.4751 116.053 91.4958 117.57 89.4929C119.891 86.4443 121.999 83.2397 123.88 79.9017C126.475 75.2639 128.656 70.4057 130.395 65.3841L130.491 65.1082C138.924 40.7978 136.358 18.2486 145.662 10.7015C185.432 -21.5627 234.946 24.3845 258.186 78.5684C259.357 81.2987 260.459 84.0454 261.491 86.8086C261.955 88.0429 262.402 89.2796 262.833 90.5185C263.965 93.7474 264.992 96.9845 265.915 100.23C266.269 101.468 266.606 102.704 266.927 103.94C267.27 105.273 267.6 106.603 267.904 107.933C270.165 117.669 271.393 127.271 271.393 136.349Z" fill="#F2F2F2"/>
<path d="M148.487 261.968C147.549 261.989 146.607 262 145.662 262C123.215 262 94.9814 250.018 69.3595 233.431C67.2397 232.059 65.1387 230.655 63.0566 229.219L64.8827 218.114L120.164 210.779L147.91 231.981L148.487 261.968Z" fill="#2F2E41"/>
<path d="M151.147 63.6758H143.27C143.026 63.6759 142.792 63.7728 142.619 63.9452C142.447 64.1176 142.35 64.3514 142.35 64.5952V72.4712C142.35 72.5917 142.374 72.7111 142.42 72.8224C142.466 72.9337 142.534 73.0348 142.62 73.1199C142.705 73.2049 142.806 73.2723 142.918 73.3182C143.03 73.3641 143.149 73.3875 143.27 73.3872H151.147C151.391 73.3873 151.624 73.2909 151.797 73.1192C151.969 72.9475 152.067 72.7145 152.067 72.4712V64.5952C152.067 64.3516 151.97 64.1181 151.797 63.9458C151.625 63.7736 151.391 63.6765 151.147 63.6758Z" fill="white"/>
<path d="M151.147 77.0977H143.27C143.026 77.0978 142.792 77.1947 142.619 77.3671C142.447 77.5395 142.35 77.7733 142.35 78.0172V85.8931C142.35 86.0137 142.374 86.133 142.42 86.2443C142.466 86.3556 142.534 86.4567 142.62 86.5418C142.705 86.6269 142.806 86.6943 142.918 86.7401C143.03 86.786 143.149 86.8094 143.27 86.8091H151.147C151.391 86.8092 151.624 86.7128 151.797 86.5411C151.969 86.3694 152.067 86.1364 152.067 85.8931V78.0172C152.067 77.7735 151.97 77.54 151.797 77.3677C151.625 77.1955 151.391 77.0984 151.147 77.0977Z" fill="#E6E6E6"/>
<path d="M151.147 90.5186H143.27C143.026 90.5187 142.792 90.6156 142.619 90.788C142.447 90.9605 142.35 91.1943 142.35 91.4381V99.3105C142.349 99.4313 142.373 99.551 142.419 99.6627C142.465 99.7743 142.533 99.8758 142.619 99.9612C142.704 100.047 142.806 100.114 142.917 100.16C143.029 100.207 143.149 100.23 143.27 100.23H151.147C151.391 100.23 151.625 100.133 151.798 99.9606C151.97 99.7882 152.067 99.5544 152.067 99.3105V91.4381C152.067 91.1944 151.97 90.961 151.797 90.7887C151.625 90.6164 151.391 90.5193 151.147 90.5186Z" fill="#E6E6E6"/>
<path d="M152.053 104.696C152.014 104.485 151.902 104.293 151.737 104.155C151.571 104.017 151.363 103.941 151.147 103.939H143.27C143.026 103.94 142.792 104.037 142.619 104.209C142.447 104.381 142.35 104.615 142.35 104.859V112.731C142.349 112.852 142.373 112.972 142.419 113.084C142.465 113.195 142.533 113.297 142.619 113.382C142.704 113.468 142.806 113.535 142.917 113.581C143.029 113.628 143.149 113.651 143.27 113.651H151.147C151.391 113.651 151.625 113.554 151.798 113.381C151.97 113.209 152.067 112.975 152.067 112.731V104.859C152.068 104.804 152.063 104.75 152.053 104.696Z" fill="#E6E6E6"/>
<path d="M151.505 117.432C151.391 117.385 151.27 117.361 151.147 117.361H143.27C143.149 117.361 143.029 117.385 142.917 117.431C142.806 117.477 142.704 117.545 142.619 117.63C142.533 117.716 142.465 117.817 142.419 117.929C142.373 118.04 142.349 118.16 142.35 118.281V126.153C142.349 126.274 142.372 126.394 142.419 126.506C142.465 126.618 142.532 126.719 142.618 126.805C142.703 126.89 142.805 126.958 142.917 127.004C143.029 127.05 143.149 127.073 143.27 127.073H151.147C151.391 127.073 151.625 126.976 151.798 126.803C151.97 126.631 152.067 126.397 152.068 126.153V118.281C152.067 118.1 152.014 117.923 151.913 117.772C151.813 117.621 151.671 117.503 151.505 117.432Z" fill="#E6E6E6"/>
<path d="M167.696 63.6758H159.819C159.575 63.6759 159.341 63.7728 159.168 63.9452C158.996 64.1176 158.899 64.3514 158.898 64.5952V72.4712C158.899 72.5917 158.922 72.7111 158.969 72.8224C159.015 72.9337 159.083 73.0348 159.168 73.1199C159.254 73.2049 159.355 73.2723 159.467 73.3182C159.578 73.3641 159.698 73.3875 159.819 73.3872H167.696C167.94 73.3873 168.173 73.2909 168.346 73.1192C168.518 72.9475 168.615 72.7145 168.616 72.4712V64.5952C168.616 64.3516 168.518 64.1181 168.346 63.9458C168.174 63.7736 167.94 63.6765 167.696 63.6758Z" fill="#E6E6E6"/>
<path d="M167.696 77.0977H159.819C159.575 77.0978 159.341 77.1947 159.168 77.3671C158.996 77.5395 158.899 77.7733 158.898 78.0172V85.8931C158.899 86.0137 158.922 86.133 158.969 86.2443C159.015 86.3556 159.083 86.4567 159.168 86.5418C159.254 86.6269 159.355 86.6943 159.467 86.7401C159.578 86.786 159.698 86.8094 159.819 86.8091H167.696C167.94 86.8092 168.173 86.7128 168.346 86.5411C168.518 86.3694 168.615 86.1364 168.616 85.8931V78.0172C168.616 77.7735 168.518 77.54 168.346 77.3677C168.174 77.1955 167.94 77.0984 167.696 77.0977Z" fill="#DC9A48"/>
<path d="M167.696 90.5186H159.819C159.575 90.5187 159.341 90.6156 159.168 90.788C158.996 90.9605 158.899 91.1943 158.898 91.4381V99.3105C158.898 99.4313 158.922 99.551 158.968 99.6627C159.014 99.7743 159.082 99.8758 159.167 99.9612C159.253 100.047 159.354 100.114 159.466 100.16C159.578 100.207 159.698 100.23 159.819 100.23H167.696C167.94 100.23 168.174 100.133 168.347 99.9606C168.519 99.7882 168.616 99.5544 168.616 99.3105V91.4381C168.616 91.1944 168.518 90.961 168.346 90.7887C168.174 90.6164 167.94 90.5193 167.696 90.5186Z" fill="#DC9A48"/>
<path d="M167.696 103.939H159.819C159.626 103.94 159.438 104.001 159.281 104.114C159.125 104.227 159.008 104.386 158.948 104.569C158.915 104.662 158.898 104.76 158.898 104.859V112.731C158.898 112.852 158.922 112.972 158.968 113.084C159.014 113.195 159.082 113.297 159.167 113.382C159.253 113.468 159.354 113.535 159.466 113.581C159.578 113.628 159.698 113.651 159.819 113.651H167.696C167.94 113.651 168.174 113.554 168.347 113.381C168.519 113.209 168.616 112.975 168.616 112.731V104.859C168.616 104.615 168.518 104.382 168.346 104.21C168.174 104.037 167.94 103.94 167.696 103.939Z" fill="#DC9A48"/>
<path d="M167.696 117.361H159.819C159.698 117.361 159.578 117.385 159.466 117.431C159.354 117.477 159.253 117.545 159.167 117.63C159.082 117.716 159.014 117.817 158.968 117.929C158.922 118.04 158.898 118.16 158.898 118.281V126.153C158.898 126.274 158.922 126.394 158.968 126.505C159.014 126.617 159.082 126.719 159.167 126.804C159.253 126.889 159.354 126.957 159.466 127.003C159.578 127.049 159.698 127.073 159.819 127.073H167.696C167.94 127.073 168.174 126.976 168.347 126.803C168.519 126.631 168.616 126.397 168.616 126.153V118.281C168.616 118.037 168.519 117.803 168.347 117.631C168.174 117.458 167.94 117.361 167.696 117.361Z" fill="#E6E6E6"/>
<path d="M184.243 63.6758H176.365C176.121 63.6759 175.887 63.7728 175.715 63.9452C175.542 64.1176 175.445 64.3514 175.445 64.5952V72.4712C175.445 72.5917 175.469 72.7111 175.516 72.8224C175.562 72.9337 175.63 73.0348 175.715 73.1199C175.801 73.2049 175.902 73.2723 176.014 73.3182C176.125 73.3641 176.245 73.3875 176.365 73.3872H184.243C184.487 73.3873 184.72 73.2909 184.893 73.1192C185.065 72.9475 185.162 72.7145 185.163 72.4712V64.5952C185.162 64.3516 185.065 64.1181 184.893 63.9458C184.72 63.7736 184.487 63.6765 184.243 63.6758Z" fill="#DC9A48"/>
<path d="M184.243 77.0977H176.365C176.121 77.0978 175.887 77.1947 175.715 77.3671C175.542 77.5395 175.445 77.7733 175.445 78.0172V85.8931C175.445 86.0137 175.469 86.133 175.516 86.2443C175.562 86.3556 175.63 86.4567 175.715 86.5418C175.801 86.6269 175.902 86.6943 176.014 86.7401C176.125 86.786 176.245 86.8094 176.365 86.8091H184.243C184.487 86.8092 184.72 86.7128 184.893 86.5411C185.065 86.3694 185.162 86.1364 185.163 85.8931V78.0172C185.163 77.7735 185.065 77.54 184.893 77.3677C184.721 77.1955 184.487 77.0984 184.243 77.0977Z" fill="#DC9A48"/>
<path d="M184.243 90.5186H176.365C176.121 90.5187 175.887 90.6156 175.715 90.788C175.542 90.9605 175.445 91.1943 175.445 91.4381V99.3105C175.445 99.4313 175.469 99.551 175.515 99.6627C175.561 99.7743 175.629 99.8758 175.714 99.9612C175.8 100.047 175.901 100.114 176.013 100.16C176.125 100.207 176.244 100.23 176.365 100.23H184.243C184.487 100.23 184.721 100.133 184.894 99.9606C185.066 99.7882 185.163 99.5544 185.163 99.3105V91.4381C185.163 91.1944 185.065 90.961 184.893 90.7887C184.721 90.6164 184.487 90.5193 184.243 90.5186Z" fill="#E6E6E6"/>
<path d="M184.243 103.939H176.365C176.121 103.94 175.887 104.037 175.715 104.209C175.542 104.381 175.445 104.615 175.445 104.859V112.731C175.445 112.852 175.469 112.972 175.515 113.084C175.561 113.195 175.629 113.297 175.714 113.382C175.8 113.468 175.901 113.535 176.013 113.581C176.125 113.628 176.244 113.651 176.365 113.651H184.243C184.487 113.651 184.721 113.554 184.894 113.381C185.066 113.209 185.163 112.975 185.163 112.731V104.859C185.163 104.615 185.065 104.382 184.893 104.21C184.721 104.037 184.487 103.94 184.243 103.939Z" fill="#DC9A48"/>
<path d="M184.243 117.361H176.365C176.244 117.361 176.125 117.385 176.013 117.431C175.901 117.477 175.8 117.545 175.714 117.63C175.629 117.716 175.561 117.817 175.515 117.929C175.469 118.04 175.445 118.16 175.445 118.281V126.153C175.445 126.274 175.469 126.394 175.515 126.505C175.561 126.617 175.629 126.719 175.714 126.804C175.8 126.889 175.901 126.957 176.013 127.003C176.125 127.049 176.244 127.073 176.365 127.073H184.243C184.487 127.073 184.721 126.976 184.894 126.803C185.066 126.631 185.163 126.397 185.163 126.153V118.281C185.163 118.037 185.066 117.803 184.894 117.631C184.721 117.458 184.487 117.361 184.243 117.361Z" fill="#DC9A48"/>
<path d="M200.792 63.6758H192.914C192.67 63.6759 192.436 63.7728 192.264 63.9452C192.091 64.1176 191.994 64.3514 191.994 64.5952V72.4712C191.994 72.5917 192.018 72.7111 192.064 72.8224C192.111 72.9337 192.179 73.0348 192.264 73.1199C192.35 73.2049 192.451 73.2724 192.563 73.3182C192.674 73.3641 192.794 73.3875 192.914 73.3872H200.792C201.035 73.3873 201.269 73.2909 201.441 73.1192C201.614 72.9475 201.711 72.7145 201.712 72.4712V64.5952C201.711 64.3516 201.614 64.1181 201.442 63.9458C201.269 63.7736 201.036 63.6765 200.792 63.6758Z" fill="#DC9A48"/>
<path d="M200.792 77.0977H192.914C192.67 77.0978 192.436 77.1947 192.264 77.3671C192.091 77.5395 191.994 77.7733 191.994 78.0172V85.8931C191.994 86.0137 192.018 86.133 192.064 86.2443C192.111 86.3556 192.179 86.4567 192.264 86.5418C192.35 86.6269 192.451 86.6943 192.563 86.7401C192.674 86.786 192.794 86.8094 192.914 86.8091H200.792C201.035 86.8092 201.269 86.7128 201.441 86.5411C201.614 86.3694 201.711 86.1364 201.712 85.8931V78.0172C201.711 77.7735 201.614 77.54 201.442 77.3677C201.269 77.1955 201.036 77.0984 200.792 77.0977Z" fill="white"/>
<path d="M200.792 90.5186H192.914C192.67 90.5187 192.436 90.6156 192.264 90.788C192.091 90.9604 191.994 91.1943 191.994 91.4381V99.3105C191.994 99.4313 192.018 99.551 192.064 99.6627C192.11 99.7743 192.178 99.8758 192.263 99.9612C192.349 100.047 192.45 100.114 192.562 100.16C192.674 100.207 192.793 100.23 192.914 100.23H200.792C201.036 100.23 201.27 100.133 201.442 99.9606C201.615 99.7882 201.712 99.5544 201.712 99.3105V91.4381C201.711 91.1944 201.614 90.961 201.442 90.7887C201.269 90.6164 201.036 90.5193 200.792 90.5186Z" fill="white"/>
<path d="M200.792 103.939H192.914C192.67 103.94 192.436 104.037 192.264 104.209C192.091 104.381 191.994 104.615 191.994 104.859V112.731C191.994 112.852 192.018 112.972 192.064 113.084C192.11 113.195 192.178 113.297 192.263 113.382C192.349 113.468 192.45 113.535 192.562 113.581C192.674 113.628 192.793 113.651 192.914 113.651H200.792C201.036 113.651 201.27 113.554 201.442 113.381C201.615 113.209 201.712 112.975 201.712 112.731V104.859C201.711 104.615 201.614 104.382 201.442 104.21C201.269 104.037 201.036 103.94 200.792 103.939Z" fill="#E6E6E6"/>
<path d="M200.792 117.361H192.914C192.793 117.361 192.674 117.385 192.562 117.431C192.45 117.477 192.349 117.545 192.263 117.63C192.178 117.716 192.11 117.817 192.064 117.929C192.018 118.04 191.994 118.16 191.994 118.281V126.153C191.994 126.274 192.018 126.394 192.064 126.505C192.11 126.617 192.178 126.719 192.263 126.804C192.349 126.889 192.45 126.957 192.562 127.003C192.674 127.049 192.793 127.073 192.914 127.073H200.792C201.036 127.073 201.27 126.976 201.442 126.803C201.615 126.631 201.712 126.397 201.712 126.153V118.281C201.712 118.037 201.615 117.803 201.442 117.631C201.27 117.458 201.036 117.361 200.792 117.361Z" fill="#DC9A48"/>
<path d="M217.339 63.6758H209.458C209.214 63.6766 208.981 63.7739 208.809 63.9462C208.637 64.1186 208.541 64.352 208.541 64.5952V72.4712C208.541 72.7141 208.638 72.9471 208.81 73.1188C208.981 73.2906 209.215 73.3871 209.458 73.3872H217.339C217.582 73.3873 217.816 73.2909 217.988 73.1192C218.161 72.9475 218.258 72.7145 218.259 72.4712V64.5952C218.258 64.3516 218.161 64.1181 217.989 63.9458C217.816 63.7736 217.583 63.6765 217.339 63.6758Z" fill="white"/>
<path d="M217.339 77.0977H209.458C209.214 77.0985 208.981 77.1958 208.809 77.3681C208.637 77.5405 208.541 77.7739 208.541 78.0172V85.8931C208.541 86.136 208.638 86.369 208.81 86.5408C208.981 86.7125 209.215 86.809 209.458 86.8091H217.339C217.582 86.8092 217.816 86.7128 217.988 86.5411C218.161 86.3694 218.258 86.1364 218.259 85.8931V78.0172C218.258 77.7735 218.161 77.54 217.989 77.3677C217.816 77.1955 217.583 77.0984 217.339 77.0977Z" fill="white"/>
<path d="M217.339 90.5186H209.458C209.214 90.5194 208.981 90.6167 208.809 90.789C208.637 90.9614 208.541 91.1948 208.541 91.4381V99.3105C208.541 99.4311 208.564 99.5505 208.61 99.662C208.656 99.7735 208.723 99.8748 208.809 99.9602C208.894 100.046 208.995 100.113 209.106 100.16C209.218 100.206 209.337 100.23 209.458 100.23H217.339C217.583 100.23 217.817 100.133 217.989 99.9606C218.162 99.7882 218.259 99.5544 218.259 99.3105V91.4381C218.258 91.1944 218.161 90.961 217.989 90.7887C217.816 90.6164 217.583 90.5193 217.339 90.5186Z" fill="white"/>
<path d="M217.339 103.939H209.458C209.214 103.94 208.981 104.038 208.809 104.21C208.637 104.382 208.541 104.616 208.541 104.859V112.731C208.541 112.852 208.564 112.971 208.61 113.083C208.656 113.194 208.723 113.296 208.809 113.381C208.894 113.467 208.995 113.534 209.106 113.581C209.218 113.627 209.337 113.651 209.458 113.651H217.339C217.583 113.651 217.817 113.554 217.989 113.381C218.162 113.209 218.259 112.975 218.259 112.731V104.859C218.258 104.615 218.161 104.382 217.989 104.21C217.816 104.037 217.583 103.94 217.339 103.939Z" fill="#DC9A48"/>
<path d="M217.339 117.361H209.458C209.337 117.361 209.218 117.385 209.106 117.432C208.995 117.478 208.894 117.546 208.809 117.631C208.723 117.717 208.656 117.818 208.61 117.929C208.564 118.041 208.541 118.16 208.541 118.281V126.153C208.541 126.274 208.564 126.393 208.61 126.505C208.656 126.616 208.723 126.718 208.809 126.803C208.894 126.888 208.995 126.956 209.106 127.002C209.218 127.049 209.337 127.073 209.458 127.073H217.339C217.583 127.073 217.817 126.976 217.989 126.803C218.162 126.631 218.259 126.397 218.259 126.153V118.281C218.259 118.037 218.162 117.803 217.989 117.631C217.817 117.458 217.583 117.361 217.339 117.361Z" fill="#E6E6E6"/>
<path d="M233.888 63.6758H226.006C225.763 63.6766 225.53 63.7739 225.358 63.9462C225.186 64.1186 225.09 64.352 225.09 64.5952V72.4712C225.09 72.7141 225.186 72.9471 225.358 73.1188C225.53 73.2906 225.763 73.3871 226.006 73.3872H233.888C234.131 73.3873 234.365 73.2909 234.537 73.1192C234.71 72.9475 234.807 72.7145 234.808 72.4712V64.5952C234.807 64.3516 234.71 64.1181 234.537 63.9459C234.365 63.7736 234.131 63.6765 233.888 63.6758Z" fill="white"/>
<path d="M233.888 77.0977H226.006C225.763 77.0985 225.53 77.1958 225.358 77.3681C225.186 77.5405 225.09 77.7739 225.09 78.0172V85.8931C225.09 86.136 225.186 86.369 225.358 86.5408C225.53 86.7125 225.763 86.809 226.006 86.8091H233.888C234.131 86.8092 234.365 86.7128 234.537 86.5411C234.71 86.3694 234.807 86.1364 234.808 85.8931V78.0172C234.807 77.7735 234.71 77.54 234.537 77.3678C234.365 77.1955 234.131 77.0984 233.888 77.0977Z" fill="white"/>
<path d="M233.888 90.5186H226.006C225.763 90.5194 225.53 90.6167 225.358 90.789C225.186 90.9614 225.09 91.1948 225.09 91.4381V99.3105C225.09 99.4311 225.113 99.5505 225.159 99.662C225.205 99.7735 225.272 99.8748 225.357 99.9602C225.442 100.046 225.544 100.113 225.655 100.16C225.766 100.206 225.886 100.23 226.006 100.23H233.888C234.132 100.23 234.366 100.133 234.538 99.9606C234.711 99.7882 234.808 99.5544 234.808 99.3105V91.4381C234.807 91.1944 234.71 90.961 234.537 90.7887C234.365 90.6164 234.131 90.5193 233.888 90.5186Z" fill="#DC9A48"/>
<path d="M233.888 103.939H226.006C225.763 103.94 225.53 104.038 225.358 104.21C225.186 104.382 225.09 104.616 225.09 104.859V112.731C225.09 112.852 225.113 112.971 225.159 113.083C225.205 113.194 225.272 113.296 225.357 113.381C225.442 113.467 225.544 113.534 225.655 113.581C225.766 113.627 225.886 113.651 226.006 113.651H233.888C234.132 113.651 234.366 113.554 234.538 113.381C234.711 113.209 234.808 112.975 234.808 112.731V104.859C234.807 104.615 234.71 104.382 234.537 104.21C234.365 104.037 234.131 103.94 233.888 103.939Z" fill="#E6E6E6"/>
<path d="M233.888 117.361H226.006C225.886 117.361 225.766 117.385 225.655 117.432C225.544 117.478 225.442 117.546 225.357 117.631C225.272 117.717 225.205 117.818 225.159 117.929C225.113 118.041 225.09 118.16 225.09 118.281V126.153C225.09 126.274 225.113 126.393 225.159 126.505C225.205 126.616 225.272 126.718 225.357 126.803C225.442 126.888 225.544 126.956 225.655 127.002C225.766 127.049 225.886 127.073 226.006 127.073H233.888C234.132 127.073 234.366 126.976 234.538 126.803C234.711 126.631 234.808 126.397 234.808 126.153V118.281C234.808 118.037 234.711 117.803 234.538 117.631C234.366 117.458 234.132 117.361 233.888 117.361Z" fill="white"/>
<path d="M250.436 63.6758H242.555C242.312 63.6766 242.079 63.7739 241.907 63.9462C241.735 64.1186 241.639 64.352 241.639 64.5952V72.4712C241.639 72.7141 241.735 72.9471 241.907 73.1188C242.079 73.2906 242.312 73.3871 242.555 73.3872H250.436C250.68 73.3873 250.913 73.2909 251.086 73.1192C251.258 72.9475 251.356 72.7145 251.357 72.4712V64.5952C251.356 64.3516 251.259 64.1181 251.086 63.9459C250.914 63.7736 250.68 63.6765 250.436 63.6758Z" fill="#DC9A48"/>
<path d="M250.436 77.0977H242.555C242.312 77.0985 242.079 77.1958 241.907 77.3681C241.735 77.5405 241.639 77.7739 241.639 78.0172V85.8931C241.639 86.136 241.735 86.369 241.907 86.5408C242.079 86.7125 242.312 86.809 242.555 86.8091H250.436C250.68 86.8092 250.913 86.7128 251.086 86.5411C251.258 86.3694 251.356 86.1364 251.357 85.8931V78.0172C251.356 77.7735 251.259 77.54 251.086 77.3678C250.914 77.1955 250.68 77.0984 250.436 77.0977Z" fill="#DC9A48"/>
<path d="M250.436 90.5186H242.555C242.312 90.5194 242.079 90.6167 241.907 90.789C241.735 90.9614 241.639 91.1948 241.639 91.4381V99.3105C241.638 99.4311 241.662 99.5505 241.708 99.662C241.754 99.7735 241.821 99.8748 241.906 99.9602C241.991 100.046 242.092 100.113 242.204 100.16C242.315 100.206 242.435 100.23 242.555 100.23H250.436C250.68 100.23 250.914 100.133 251.087 99.9606C251.26 99.7882 251.356 99.5544 251.357 99.3105V91.4381C251.356 91.1944 251.259 90.961 251.086 90.7887C250.914 90.6164 250.68 90.5193 250.436 90.5186Z" fill="#E6E6E6"/>
<path d="M250.436 103.939H242.555C242.312 103.94 242.079 104.038 241.907 104.21C241.735 104.382 241.639 104.616 241.639 104.859V112.731C241.638 112.852 241.662 112.971 241.708 113.083C241.754 113.194 241.821 113.296 241.906 113.381C241.991 113.467 242.092 113.534 242.204 113.581C242.315 113.627 242.435 113.651 242.555 113.651H250.436C250.68 113.651 250.914 113.554 251.087 113.381C251.26 113.209 251.356 112.975 251.357 112.731V104.859C251.356 104.615 251.259 104.382 251.086 104.21C250.914 104.037 250.68 103.94 250.436 103.939Z" fill="white"/>
<path d="M250.436 117.361H242.555C242.435 117.361 242.315 117.385 242.204 117.432C242.092 117.478 241.991 117.546 241.906 117.631C241.821 117.717 241.754 117.818 241.708 117.929C241.662 118.041 241.638 118.16 241.639 118.281V126.153C241.638 126.274 241.662 126.393 241.708 126.505C241.754 126.616 241.821 126.718 241.906 126.803C241.991 126.888 242.092 126.956 242.204 127.002C242.315 127.049 242.435 127.073 242.555 127.073H250.436C250.68 127.073 250.914 126.976 251.087 126.803C251.26 126.631 251.356 126.397 251.357 126.153V118.281C251.356 118.037 251.26 117.803 251.087 117.631C250.914 117.458 250.68 117.361 250.436 117.361Z" fill="#DC9A48"/>
<path d="M266.983 63.6758H259.102C258.859 63.6766 258.626 63.7739 258.454 63.9462C258.282 64.1186 258.185 64.352 258.186 64.5952V72.4712C258.186 72.7141 258.282 72.9471 258.454 73.1188C258.626 73.2906 258.859 73.3871 259.102 73.3872H266.983C267.227 73.3873 267.46 73.2909 267.633 73.1192C267.805 72.9475 267.903 72.7145 267.903 72.4712V64.5952C267.903 64.3516 267.806 64.1181 267.633 63.9459C267.461 63.7736 267.227 63.6765 266.983 63.6758Z" fill="#DC9A48"/>
<path d="M266.983 77.0977H259.102C258.859 77.0985 258.626 77.1958 258.454 77.3681C258.282 77.5405 258.185 77.7739 258.186 78.0172V85.8931C258.186 86.136 258.282 86.369 258.454 86.5408C258.626 86.7125 258.859 86.809 259.102 86.8091H266.983C267.227 86.8092 267.46 86.7128 267.633 86.5411C267.805 86.3694 267.903 86.1364 267.903 85.8931V78.0172C267.903 77.7735 267.806 77.54 267.633 77.3678C267.461 77.1955 267.227 77.0984 266.983 77.0977Z" fill="#DC9A48"/>
<path d="M266.983 90.5186H259.102C258.859 90.5194 258.626 90.6167 258.454 90.789C258.282 90.9614 258.185 91.1948 258.186 91.4381V99.3105C258.185 99.4311 258.209 99.5505 258.255 99.662C258.3 99.7735 258.368 99.8748 258.453 99.9602C258.538 100.046 258.639 100.113 258.751 100.16C258.862 100.206 258.982 100.23 259.102 100.23H266.983C267.227 100.23 267.461 100.133 267.634 99.9606C267.806 99.7882 267.903 99.5543 267.903 99.3105V91.4381C267.903 91.1944 267.806 90.961 267.633 90.7887C267.461 90.6164 267.227 90.5193 266.983 90.5186Z" fill="#E6E6E6"/>
<path d="M266.983 103.939H259.102C258.859 103.94 258.626 104.038 258.454 104.21C258.282 104.382 258.185 104.616 258.186 104.859V112.731C258.185 112.852 258.209 112.971 258.255 113.083C258.3 113.194 258.368 113.296 258.453 113.381C258.538 113.467 258.639 113.534 258.751 113.581C258.862 113.627 258.982 113.651 259.102 113.651H266.983C267.227 113.651 267.461 113.554 267.634 113.381C267.806 113.209 267.903 112.975 267.903 112.731V104.859C267.903 104.615 267.806 104.382 267.633 104.21C267.461 104.037 267.227 103.94 266.983 103.939Z" fill="#DC9A48"/>
<path d="M266.983 117.361H259.102C258.982 117.361 258.862 117.385 258.751 117.432C258.639 117.478 258.538 117.546 258.453 117.631C258.368 117.717 258.3 117.818 258.255 117.929C258.209 118.041 258.185 118.16 258.186 118.281V126.153C258.185 126.274 258.209 126.393 258.255 126.505C258.3 126.616 258.368 126.718 258.453 126.803C258.538 126.888 258.639 126.956 258.751 127.002C258.862 127.049 258.982 127.073 259.102 127.073H266.983C267.227 127.073 267.461 126.976 267.634 126.803C267.806 126.631 267.903 126.397 267.903 126.153V118.281C267.903 118.037 267.806 117.803 267.634 117.631C267.461 117.458 267.227 117.361 266.983 117.361Z" fill="#DC9A48"/>
<path d="M283.532 63.6758H275.651C275.408 63.6766 275.174 63.7739 275.003 63.9462C274.831 64.1186 274.734 64.352 274.734 64.5952V72.4712C274.734 72.7141 274.831 72.9471 275.003 73.1188C275.175 73.2906 275.408 73.3871 275.651 73.3872H283.532C283.776 73.3873 284.009 73.2909 284.182 73.1192C284.354 72.9475 284.451 72.7145 284.452 72.4712V64.5952C284.452 64.3516 284.354 64.1181 284.182 63.9459C284.01 63.7736 283.776 63.6765 283.532 63.6758Z" fill="#E6E6E6"/>
<path d="M283.532 77.0977H275.651C275.408 77.0985 275.174 77.1958 275.003 77.3681C274.831 77.5405 274.734 77.7739 274.734 78.0172V85.8931C274.734 86.136 274.831 86.369 275.003 86.5408C275.175 86.7125 275.408 86.809 275.651 86.8091H283.532C283.776 86.8092 284.009 86.7128 284.182 86.5411C284.354 86.3694 284.451 86.1364 284.452 85.8931V78.0172C284.452 77.7735 284.354 77.54 284.182 77.3678C284.01 77.1955 283.776 77.0984 283.532 77.0977Z" fill="#DC9A48"/>
<path d="M283.532 90.5186H275.651C275.408 90.5194 275.174 90.6167 275.003 90.789C274.831 90.9614 274.734 91.1948 274.734 91.4381V99.3105C274.734 99.4311 274.757 99.5505 274.803 99.662C274.849 99.7735 274.917 99.8748 275.002 99.9602C275.087 100.046 275.188 100.113 275.3 100.16C275.411 100.206 275.53 100.23 275.651 100.23H283.532C283.776 100.23 284.01 100.133 284.183 99.9606C284.355 99.7882 284.452 99.5543 284.452 99.3105V91.4381C284.452 91.1944 284.354 90.961 284.182 90.7887C284.01 90.6164 283.776 90.5193 283.532 90.5186Z" fill="#DC9A48"/>
<path d="M283.532 103.939H275.651C275.408 103.94 275.174 104.038 275.003 104.21C274.831 104.382 274.734 104.616 274.734 104.859V112.731C274.734 112.852 274.757 112.971 274.803 113.083C274.849 113.194 274.917 113.296 275.002 113.381C275.087 113.467 275.188 113.534 275.3 113.581C275.411 113.627 275.53 113.651 275.651 113.651H283.532C283.776 113.651 284.01 113.554 284.183 113.381C284.355 113.209 284.452 112.975 284.452 112.731V104.859C284.452 104.615 284.354 104.382 284.182 104.21C284.01 104.037 283.776 103.94 283.532 103.939Z" fill="#DC9A48"/>
<path d="M283.532 117.361H275.651C275.53 117.361 275.411 117.385 275.3 117.432C275.188 117.478 275.087 117.546 275.002 117.631C274.917 117.717 274.849 117.818 274.803 117.929C274.757 118.041 274.734 118.16 274.734 118.281V126.153C274.734 126.274 274.757 126.393 274.803 126.505C274.849 126.616 274.917 126.718 275.002 126.803C275.087 126.888 275.188 126.956 275.3 127.002C275.411 127.049 275.53 127.073 275.651 127.073H283.532C283.776 127.073 284.01 126.976 284.183 126.803C284.355 126.631 284.452 126.397 284.452 126.153V118.281C284.452 118.037 284.355 117.803 284.183 117.631C284.01 117.458 283.776 117.361 283.532 117.361Z" fill="#E6E6E6"/>
<path d="M300.079 63.6758H292.198C291.954 63.6766 291.721 63.7739 291.549 63.9462C291.378 64.1186 291.281 64.352 291.281 64.5952V72.4712C291.281 72.7141 291.378 72.9471 291.55 73.1188C291.722 73.2906 291.955 73.3871 292.198 73.3872H300.079C300.323 73.3873 300.556 73.2909 300.729 73.1192C300.901 72.9475 300.998 72.7145 300.999 72.4712V64.5952C300.998 64.3516 300.901 64.1181 300.729 63.9459C300.557 63.7736 300.323 63.6765 300.079 63.6758Z" fill="#E6E6E6"/>
<path d="M300.079 77.0977H292.198C291.954 77.0985 291.721 77.1958 291.549 77.3681C291.378 77.5405 291.281 77.7739 291.281 78.0172V85.8931C291.281 86.136 291.378 86.369 291.55 86.5408C291.722 86.7125 291.955 86.809 292.198 86.8091H300.079C300.323 86.8092 300.556 86.7128 300.729 86.5411C300.901 86.3694 300.998 86.1364 300.999 85.8931V78.0172C300.999 77.7735 300.901 77.54 300.729 77.3678C300.557 77.1955 300.323 77.0984 300.079 77.0977Z" fill="#E6E6E6"/>
<path d="M300.079 90.5186H292.198C291.954 90.5194 291.721 90.6167 291.549 90.789C291.378 90.9614 291.281 91.1948 291.281 91.4381V99.3105C291.281 99.4311 291.304 99.5505 291.35 99.662C291.396 99.7735 291.464 99.8748 291.549 99.9602C291.634 100.046 291.735 100.113 291.846 100.16C291.958 100.206 292.077 100.23 292.198 100.23H300.079C300.323 100.23 300.557 100.133 300.73 99.9606C300.902 99.7882 300.999 99.5543 300.999 99.3105V91.4381C300.999 91.1944 300.901 90.961 300.729 90.7887C300.557 90.6164 300.323 90.5193 300.079 90.5186Z" fill="#DC9A48"/>
<path d="M300.079 103.939H292.198C291.954 103.94 291.721 104.038 291.549 104.21C291.378 104.382 291.281 104.616 291.281 104.859V112.731C291.281 112.852 291.304 112.971 291.35 113.083C291.396 113.194 291.464 113.296 291.549 113.381C291.634 113.467 291.735 113.534 291.846 113.581C291.958 113.627 292.077 113.651 292.198 113.651H300.079C300.323 113.651 300.557 113.554 300.73 113.381C300.902 113.209 300.999 112.975 300.999 112.731V104.859C300.999 104.615 300.901 104.382 300.729 104.21C300.557 104.037 300.323 103.94 300.079 103.939Z" fill="#E6E6E6"/>
<path d="M300.079 117.361H292.198C292.077 117.361 291.958 117.385 291.846 117.432C291.735 117.478 291.634 117.546 291.549 117.631C291.464 117.717 291.396 117.818 291.35 117.929C291.304 118.041 291.281 118.16 291.281 118.281V126.153C291.281 126.274 291.304 126.393 291.35 126.505C291.396 126.616 291.464 126.718 291.549 126.803C291.634 126.888 291.735 126.956 291.846 127.002C291.958 127.049 292.077 127.073 292.198 127.073H300.079C300.323 127.073 300.557 126.976 300.73 126.803C300.902 126.631 300.999 126.397 300.999 126.153V118.281C300.999 118.037 300.902 117.803 300.73 117.631C300.557 117.458 300.323 117.361 300.079 117.361Z" fill="#E6E6E6"/>
<path d="M118.943 233.432H118.723L118.911 233.407L118.943 233.432Z" fill="#2F2E41"/>
<path d="M100.087 86.6659C113.44 86.6659 124.266 75.848 124.266 62.5034C124.266 49.1588 113.44 38.3408 100.087 38.3408C86.7334 38.3408 75.9082 49.1588 75.9082 62.5034C75.9082 75.848 86.7334 86.6659 100.087 86.6659Z" fill="#FFB6B6"/>
<path d="M121.259 44.787C121.259 44.787 127.583 32.7058 113.671 31.6075C113.671 31.6075 101.81 20.8555 89.7206 29.6418C89.7206 29.6418 83.1264 29.6418 79.5205 37.0989C79.5205 37.0989 74.3342 35.1333 73.1945 40.3938C73.1945 40.3938 69.3995 51.3768 73.1945 61.2615C76.9894 71.1462 78.25 72.2445 78.25 72.2445C78.25 72.2445 72.014 51.5207 87.1928 50.4224C102.372 49.3241 119.357 39.8447 120.622 51.926C121.887 64.0072 123.791 66.9839 123.791 66.9839C123.791 66.9839 135.805 49.7294 121.259 44.787Z" fill="#2F2E41"/>
<path d="M162.632 122.051L162.554 122.461L161.68 127.073L155.639 158.972L155.282 160.85L154.531 164.822L153.505 170.24L151.229 182.247L150.578 185.688L150.334 186.979L150.249 187.431L149.573 190.993L149.368 192.068L147.719 204.28L146.279 214.921L151.099 219.738L148.225 222.61L146.339 233.407L146.342 233.432H69.3598C66.2455 231.416 63.1761 229.337 60.1515 227.197L60.7849 222.458C60.7849 222.458 62.9649 213.995 62.0483 212.983C61.1353 211.972 59.1322 210.164 59.1322 210.164L61.6555 204.28L62.0059 203.463L61.4184 191.286L61.4043 190.993L61.2096 186.979L61.1848 186.462L61.1459 185.688L60.3992 170.24L60.385 169.985L60.1586 165.303L59.9462 160.85L59.8542 158.972L58.9447 140.183L58.3289 127.423L57.791 116.314L59.9533 115.582L83.0803 107.727L92.6601 95.2822L112.599 95.4308L122.359 95.5051L138.645 110.599L142.35 112.367L142.379 112.382L145.036 113.651L151.775 116.866L158.898 120.268L162.554 122.012L162.632 122.051Z" fill="#CACACA"/>
<path d="M95.236 197.182C93.7749 197.748 92.2074 197.986 90.6441 197.881C89.0807 197.776 87.5595 197.329 86.1874 196.573C84.8154 195.817 83.626 194.769 82.703 193.504C81.78 192.238 81.1459 190.786 80.8453 189.25L43.1348 183.903L56.244 169.084L90.0447 176.433C92.6616 176.099 95.31 176.737 97.4881 178.224C99.6662 179.712 101.223 181.946 101.863 184.503C102.502 187.061 102.181 189.764 100.96 192.101C99.7387 194.438 97.702 196.246 95.236 197.182Z" fill="#FFB6B6"/>
<path d="M78.423 170.24C77.7244 169.355 76.7355 168.745 75.6308 168.518L60.1586 165.303L58.5696 164.974C57.6461 164.781 56.7738 164.396 56.0097 163.843C55.2455 163.291 54.6068 162.583 54.1353 161.766C53.6462 160.909 53.3502 159.956 53.2682 158.972C53.1945 158.079 53.3016 157.179 53.5832 156.327L58.9447 140.183L62.4234 129.707C62.845 128.444 63.0939 127.129 63.1631 125.799C63.3569 122.119 62.2174 118.492 59.9533 115.582C57.9627 113.025 55.2019 111.175 52.0786 110.307C48.9553 109.438 45.6353 109.596 42.6089 110.758C42.5205 110.79 42.4284 110.826 42.34 110.861C40.1696 111.727 38.2306 113.085 36.6761 114.829C35.1215 116.573 33.9941 118.654 33.3829 120.908L29.6033 134.648L21.8071 162.972C21.0266 165.81 20.8689 168.783 21.3448 171.687C21.8207 174.592 22.919 177.359 24.5644 179.8C26.2097 182.241 28.3634 184.298 30.878 185.83C33.3926 187.362 36.2088 188.333 39.1337 188.676L61.4184 191.286L71.7308 192.496C72.9233 192.639 74.126 192.328 75.0993 191.625C76.0726 190.921 76.745 189.877 76.9826 188.701C76.9993 188.637 77.0123 188.572 77.0215 188.506L77.2693 186.979L79.3679 174.113L79.3891 173.982C79.4984 173.325 79.469 172.653 79.3026 172.009C79.1362 171.364 78.8365 170.762 78.423 170.24Z" fill="#CACACA"/>
<path d="M119.257 197.594C120.783 197.949 122.369 197.964 123.902 197.639C125.434 197.315 126.878 196.659 128.129 195.717C129.381 194.774 130.41 193.57 131.146 192.187C131.881 190.804 132.304 189.277 132.384 187.713L168.964 177.106L153.894 164.282L121.468 176.321C118.831 176.36 116.299 177.364 114.352 179.143C112.406 180.923 111.18 183.354 110.907 185.976C110.635 188.598 111.334 191.23 112.873 193.371C114.412 195.512 116.683 197.015 119.257 197.594Z" fill="#FFB6B6"/>
<path d="M187.124 153.377L169.727 113.365C168.304 110.08 165.762 107.405 162.553 105.814C161.561 105.326 160.52 104.947 159.446 104.682C159.28 104.64 159.113 104.601 158.947 104.569C156.671 104.073 154.31 104.116 152.053 104.696C149.991 105.226 148.063 106.184 146.396 107.508C144.729 108.832 143.36 110.493 142.378 112.381C142.367 112.397 142.358 112.414 142.349 112.431C141.253 114.551 140.67 116.899 140.647 119.285C140.624 121.672 141.162 124.03 142.219 126.171L142.434 126.602L154.729 151.277C155.148 152.12 155.385 153.043 155.423 153.985C155.461 154.927 155.299 155.865 154.948 156.74C154.597 157.615 154.065 158.405 153.387 159.06C152.709 159.715 151.9 160.219 151.013 160.539L150.149 160.85L134.62 166.456C133.455 166.871 132.497 167.722 131.947 168.83C131.397 169.937 131.299 171.215 131.672 172.394L131.711 172.517L136.064 186.437C136.086 186.501 136.107 186.565 136.132 186.628C136.17 186.748 136.217 186.865 136.273 186.978C136.736 188.015 137.553 188.853 138.579 189.341C139.605 189.829 140.771 189.936 141.868 189.641L150.248 187.431L151.958 186.978L173.598 181.267C176.446 180.515 179.097 179.157 181.37 177.286C183.644 175.415 185.486 173.075 186.771 170.426C188.055 167.778 188.752 164.883 188.813 161.941C188.874 158.998 188.298 156.077 187.124 153.377Z" fill="#CACACA"/>
<path d="M15.8887 186.979C20.9035 193.091 26.3119 198.87 32.0793 204.279H192.029C193.57 204.282 195.047 204.895 196.136 205.984C197.225 207.074 197.838 208.55 197.84 210.09L198.07 250.594C207.91 246.077 217.124 240.308 225.486 233.431C227.807 231.525 230.057 229.537 232.234 227.465C233.661 226.114 235.053 224.73 236.41 223.313C246.59 212.716 254.833 200.419 260.765 186.979H15.8887Z" fill="#3F3D56"/>
<path d="M236.412 223.313C235.056 224.732 233.664 226.116 232.236 227.465H198.188V223.313H236.412Z" fill="white"/>
<path d="M162.312 90.5187C162.144 90.2085 161.895 89.9494 161.591 89.7689C161.288 89.5884 160.942 89.4931 160.588 89.4932H44.568C44.0478 89.4945 43.5494 89.7019 43.1819 90.0698C42.8144 90.4377 42.6078 90.9361 42.6074 91.4559V160.851H162.553V91.4559C162.554 91.128 162.472 90.8052 162.312 90.5187Z" fill="#3F3D56"/>
<path d="M42.5039 158.972V167.535C42.5039 167.89 42.5739 168.242 42.7098 168.57C42.8458 168.898 43.045 169.196 43.2962 169.447C43.5474 169.698 43.8456 169.897 44.1738 170.033C44.502 170.168 44.8538 170.238 45.209 170.238H89.4799V187.138H88.8918C88.8457 187.138 88.8 187.148 88.7573 187.165C88.7147 187.183 88.676 187.209 88.6433 187.241C88.6107 187.274 88.5848 187.313 88.5672 187.355C88.5495 187.398 88.5404 187.444 88.5404 187.49V188.665C88.5404 188.711 88.5495 188.757 88.5671 188.8C88.5848 188.842 88.6107 188.881 88.6433 188.913C88.676 188.946 88.7147 188.972 88.7573 188.99C88.8 189.007 88.8457 189.016 88.8918 189.016H116.375C116.421 189.016 116.466 189.007 116.509 188.99C116.552 188.972 116.59 188.946 116.623 188.913C116.656 188.881 116.682 188.842 116.699 188.8C116.717 188.757 116.726 188.711 116.726 188.665V187.49C116.726 187.444 116.717 187.398 116.699 187.355C116.682 187.313 116.656 187.274 116.623 187.241C116.59 187.209 116.552 187.183 116.509 187.165C116.466 187.148 116.421 187.138 116.375 187.138H115.787V170.238H160.057C160.413 170.238 160.764 170.168 161.093 170.033C161.421 169.897 161.719 169.698 161.97 169.447C162.221 169.196 162.421 168.898 162.557 168.57C162.693 168.242 162.763 167.89 162.763 167.535V158.972H42.5039Z" fill="#3F3D56"/>
<path d="M101.179 134.394C107.298 134.394 112.258 129.437 112.258 123.322C112.258 117.207 107.298 112.25 101.179 112.25C95.0599 112.25 90.0996 117.207 90.0996 123.322C90.0996 129.437 95.0599 134.394 101.179 134.394Z" fill="#DC9A48"/>
</g>
<defs>
<clipPath id="clip0_7_4">
<rect width="301" height="262" fill="white"/>
</clipPath>
</defs>
</svg>
