<svg width="444" height="290" viewBox="0 0 444 290" fill="none" xmlns="http://www.w3.org/2000/svg">
<g clip-path="url(#clip0_7_316)">
<path d="M63.6211 290C98.7581 290 127.242 287.833 127.242 285.16C127.242 282.486 98.7581 280.319 63.6211 280.319C28.4841 280.319 0 282.486 0 285.16C0 287.833 28.4841 290 63.6211 290Z" fill="#E6E6E6"/>
<path d="M84.2272 72.8508L58.8457 65.9461C65.6233 59.5667 68.5716 53.557 67.6908 47.917H84.2272V72.8508Z" fill="#9F616A"/>
<path d="M86.9179 266.952L78.7194 268.102L68.843 177.573L53.0758 267.718L44.6152 268.102V153.79H96.9167L86.9179 266.952Z" fill="#2F2E41"/>
<path d="M48.8733 285.201C50.1601 285.238 51.4223 284.844 52.4587 284.082C53.4951 283.321 54.2462 282.235 54.5922 280.998L55.1911 272.084L53.9839 265.762C50.7987 263.151 47.5787 263.206 44.3261 265.762L43.289 279.004C43.2282 279.781 43.3262 280.562 43.5772 281.3C43.8282 282.038 44.2269 282.717 44.7492 283.297C45.2714 283.876 45.9062 284.344 46.6152 284.671C47.3241 284.999 48.0924 285.179 48.8733 285.201Z" fill="#2F2E41"/>
<path d="M82.717 285.201C84.0039 285.238 85.266 284.844 86.3025 284.082C87.3389 283.321 88.0899 282.235 88.436 280.998L89.0348 272.084L87.8276 265.762C84.6425 263.151 81.4225 263.206 78.1699 265.762L77.1328 279.004C77.0719 279.781 77.17 280.562 77.421 281.3C77.672 282.038 78.0707 282.717 78.5929 283.297C79.1151 283.876 79.75 284.344 80.4589 284.671C81.1679 284.999 81.9361 285.179 82.717 285.201Z" fill="#2F2E41"/>
<path d="M80.7659 59.8087C88.8368 59.8087 95.3795 53.2825 95.3795 45.232C95.3795 37.1815 88.8368 30.6553 80.7659 30.6553C72.6951 30.6553 66.1523 37.1815 66.1523 45.232C66.1523 53.2825 72.6951 59.8087 80.7659 59.8087Z" fill="#9F616A"/>
<path d="M99.2253 155.709H43.4629C50.6903 122.298 50.67 95.3897 44.9131 73.6279C44.5464 72.2424 44.7054 70.7707 45.3597 69.495C46.014 68.2193 47.1175 67.2295 48.4584 66.7154L63.4604 60.96C67.9644 66.7618 74.3201 69.2959 84.2271 65.5631L92.0885 67.1716C94.0028 67.5609 95.7107 68.629 96.896 70.178C98.0813 71.7271 98.6637 73.6521 98.5353 75.5965C97.9567 84.1076 98.1848 92.6837 97.687 100.087C96.1455 123.012 95.4797 140.885 99.2253 155.709Z" fill="#E6E6E6"/>
<path d="M73.0742 26.052C73.0742 26.052 81.5347 16.4621 91.5335 25.6684L94.2254 26.4356L92.3026 27.97C92.3026 27.97 102.301 32.5731 101.532 42.1631C101.532 42.1631 99.994 41.7795 99.2248 42.1631C98.4557 42.5467 98.0711 46.7663 98.0711 46.7663C98.0711 46.7663 96.9174 43.6975 96.5329 43.3139C96.1483 42.9303 90.7644 47.5335 81.9193 40.6287C81.9193 40.6287 79.2273 47.5335 76.1508 46.7663C73.0743 45.9991 68.844 46.3827 66.9211 51.3694C66.9211 51.3694 56.5377 29.1208 73.0742 26.052Z" fill="#2F2E41"/>
<path d="M101.917 147.269L96.9806 153.869C96.4664 154.556 96.0944 155.339 95.8862 156.171C95.6781 157.003 95.6379 157.868 95.7681 158.716C95.8983 159.563 96.1961 160.377 96.6444 161.109C97.0927 161.841 97.6824 162.476 98.3793 162.979C99.2767 163.626 100.325 164.033 101.425 164.161C102.525 164.289 103.639 164.134 104.662 163.711C105.685 163.288 106.582 162.611 107.268 161.744C107.954 160.877 108.406 159.849 108.581 158.758L109.993 149.954L112.685 111.978L110.762 92.7979L98.4561 97.401L101.917 113.896V147.269Z" fill="#9F616A"/>
<path d="M96.9175 102.004L111.916 95.0993L111.147 89.6644C111.147 85.1647 109.783 80.7702 107.234 77.0576C104.685 73.3451 101.071 70.4879 96.8646 68.8611L92.3027 67.0967L96.9175 102.004Z" fill="#E6E6E6"/>
<path d="M42.3089 145.735L47.2456 152.334C47.7597 153.022 48.1317 153.804 48.3399 154.637C48.548 155.469 48.5882 156.334 48.458 157.182C48.3279 158.029 48.03 158.843 47.5817 159.575C47.1334 160.306 46.5437 160.942 45.8469 161.445C44.9495 162.091 43.9009 162.499 42.8011 162.627C41.7014 162.755 40.587 162.6 39.5642 162.177C38.5414 161.754 37.6442 161.077 36.9582 160.21C36.2722 159.343 35.8202 158.315 35.6453 157.224L34.233 148.42L31.541 110.444L33.4639 91.2637L45.77 95.8668L42.3089 112.362V145.735Z" fill="#9F616A"/>
<path d="M47.3087 100.47L32.3105 93.5651L33.0797 88.1302C33.0797 83.6306 34.4436 79.236 36.9924 75.5235C39.5411 71.8109 43.1557 68.9537 47.3616 67.3269L51.9235 65.5625L47.3087 100.47Z" fill="#E6E6E6"/>
<path d="M439.956 247.244H183.315C182.243 247.243 181.215 246.818 180.457 246.062C179.699 245.306 179.273 244.28 179.271 243.211V131.886C179.273 130.817 179.699 129.791 180.457 129.035C181.215 128.279 182.243 127.854 183.315 127.853H439.956C441.029 127.854 442.056 128.279 442.814 129.035C443.573 129.791 443.999 130.817 444 131.886V243.211C443.999 244.28 443.573 245.306 442.814 246.062C442.056 246.818 441.029 247.243 439.956 247.244ZM183.315 129.466C182.672 129.467 182.055 129.722 181.6 130.176C181.146 130.629 180.89 131.244 180.889 131.886V243.211C180.89 243.853 181.146 244.468 181.6 244.921C182.055 245.375 182.672 245.63 183.315 245.631H439.956C440.6 245.63 441.216 245.375 441.671 244.921C442.126 244.468 442.382 243.853 442.383 243.211V131.886C442.382 131.244 442.126 130.629 441.671 130.176C441.216 129.722 440.6 129.467 439.956 129.466H183.315Z" fill="#E6E6E6"/>
<path d="M193.829 141.566C193.185 141.566 192.568 141.821 192.113 142.275C191.658 142.729 191.402 143.345 191.402 143.987C191.402 144.628 191.658 145.244 192.113 145.698C192.568 146.152 193.185 146.407 193.829 146.407H227.796C228.439 146.407 229.056 146.152 229.511 145.698C229.966 145.244 230.222 144.628 230.222 143.987C230.222 143.345 229.966 142.729 229.511 142.275C229.056 141.821 228.439 141.566 227.796 141.566H193.829Z" fill="#E6E6E6"/>
<path d="M426.365 158.397V203.277H197.312V179.647C198.899 178.631 200.494 177.62 202.104 176.642C208.981 172.445 216.341 168.519 224.363 167.064C228.156 166.359 232.044 166.31 235.854 166.921C239.879 167.584 243.732 168.967 247.546 170.355C251.308 171.729 255.079 173.146 259.013 173.942C262.847 174.693 266.782 174.771 270.643 174.171C278.008 173.069 284.928 170.117 291.818 167.446C298.752 164.76 305.897 162.223 313.401 161.889C320.809 161.555 328.126 163.301 335.156 165.466C349.489 169.878 364.123 176.423 379.299 171.934C394.71 167.384 408.884 154.248 425.963 158.145C426.124 158.175 426.268 158.265 426.365 158.397Z" fill="#E6E6E6"/>
<path d="M426.363 159.18C426.29 159.317 426.173 159.425 426.031 159.487C425.889 159.549 425.73 159.562 425.579 159.523C423.544 159.058 421.46 158.843 419.372 158.884C402.574 159.18 389.658 172.669 373.232 174.686C358.422 176.504 344.483 169.32 330.558 165.567C323.323 163.616 315.863 162.581 308.418 163.907C301.03 165.218 294.096 168.233 287.134 170.909C280.43 173.484 273.462 175.879 266.204 175.998C258.223 176.132 251.035 172.85 243.633 170.351C239.784 169.049 235.834 168.018 231.755 167.918C227.779 167.871 223.824 168.481 220.049 169.726C212.182 172.22 205.096 176.666 198.195 181.083C198.077 181.166 197.933 181.205 197.789 181.192C197.64 181.173 197.501 181.108 197.389 181.007C197.278 180.907 197.2 180.774 197.166 180.629C197.132 180.483 197.143 180.33 197.198 180.19C197.253 180.051 197.349 179.931 197.473 179.847L197.789 179.647C199.372 178.631 200.964 177.62 202.571 176.642C209.433 172.445 216.778 168.519 224.783 167.064C228.568 166.359 232.448 166.31 236.25 166.921C240.267 167.584 244.111 168.967 247.918 170.355C251.671 171.729 255.435 173.146 259.361 173.942C263.186 174.693 267.114 174.771 270.966 174.171C278.316 173.069 285.221 170.117 292.097 167.446C299.017 164.76 306.147 162.223 313.635 161.889C321.028 161.555 328.33 163.301 335.345 165.466C349.648 169.878 364.251 176.423 379.396 171.934C394.774 167.384 408.919 154.248 425.962 158.145C426.123 158.175 426.267 158.265 426.363 158.397C426.437 158.515 426.476 158.65 426.476 158.789C426.476 158.927 426.437 159.063 426.363 159.18Z" fill="#DC9A48"/>
<path d="M228.873 170.842C230.721 170.842 232.22 169.347 232.22 167.503C232.22 165.659 230.721 164.164 228.873 164.164C227.024 164.164 225.525 165.659 225.525 167.503C225.525 169.347 227.024 170.842 228.873 170.842Z" fill="#DC9A48"/>
<path d="M313.511 166.549C315.36 166.549 316.859 165.054 316.859 163.21C316.859 161.366 315.36 159.871 313.511 159.871C311.663 159.871 310.164 161.366 310.164 163.21C310.164 165.054 311.663 166.549 313.511 166.549Z" fill="#DC9A48"/>
<path d="M416.8 162.256C418.649 162.256 420.148 160.761 420.148 158.917C420.148 157.073 418.649 155.578 416.8 155.578C414.952 155.578 413.453 157.073 413.453 158.917C413.453 160.761 414.952 162.256 416.8 162.256Z" fill="#DC9A48"/>
<path d="M226.987 222.237C226.343 222.237 225.726 222.492 225.271 222.946C224.816 223.4 224.561 224.016 224.561 224.657C224.561 225.299 224.816 225.915 225.271 226.369C225.726 226.823 226.343 227.078 226.987 227.078H260.954C261.597 227.078 262.215 226.823 262.67 226.369C263.125 225.915 263.38 225.299 263.38 224.657C263.38 224.016 263.125 223.4 262.67 222.946C262.215 222.492 261.597 222.237 260.954 222.237H226.987Z" fill="#E6E6E6"/>
<path d="M205.152 233.531C210.214 233.531 214.318 229.438 214.318 224.389C214.318 219.339 210.214 215.246 205.152 215.246C200.09 215.246 195.986 219.339 195.986 224.389C195.986 229.438 200.09 233.531 205.152 233.531Z" fill="#DC9A48"/>
<path d="M308.94 222.237C308.296 222.237 307.679 222.492 307.224 222.946C306.769 223.4 306.514 224.016 306.514 224.657C306.514 225.299 306.769 225.915 307.224 226.369C307.679 226.823 308.296 227.078 308.94 227.078H342.907C343.551 227.078 344.168 226.823 344.623 226.369C345.078 225.915 345.333 225.299 345.333 224.657C345.333 224.016 345.078 223.4 344.623 222.946C344.168 222.492 343.551 222.237 342.907 222.237H308.94Z" fill="#E6E6E6"/>
<path d="M287.103 233.531C292.165 233.531 296.269 229.438 296.269 224.389C296.269 219.339 292.165 215.246 287.103 215.246C282.041 215.246 277.938 219.339 277.938 224.389C277.938 229.438 282.041 233.531 287.103 233.531Z" fill="#DC9A48"/>
<path d="M390.893 222.237C390.25 222.237 389.632 222.492 389.177 222.946C388.722 223.4 388.467 224.016 388.467 224.657C388.467 225.299 388.722 225.915 389.177 226.369C389.632 226.823 390.25 227.078 390.893 227.078H424.86C425.504 227.078 426.121 226.823 426.576 226.369C427.031 225.915 427.286 225.299 427.286 224.657C427.286 224.016 427.031 223.4 426.576 222.946C426.121 222.492 425.504 222.237 424.86 222.237H390.893Z" fill="#E6E6E6"/>
<path d="M369.056 233.531C374.118 233.531 378.222 229.438 378.222 224.389C378.222 219.339 374.118 215.246 369.056 215.246C363.994 215.246 359.891 219.339 359.891 224.389C359.891 229.438 363.994 233.531 369.056 233.531Z" fill="#DC9A48"/>
<path d="M422.39 97.7946H295.774C293.306 97.7946 291.305 96.3732 291.303 94.6215V67.1711C291.305 65.4195 293.306 63.998 295.774 63.998H422.39C424.858 63.998 426.858 65.4195 426.861 67.1711V94.621C426.859 96.3726 424.858 97.7924 422.39 97.7946ZM295.774 65.2662C294.293 65.2662 293.093 66.1191 293.091 67.17V94.6199C293.091 95.6708 294.293 96.5227 295.774 96.5237H422.39C423.871 96.5237 425.071 95.6708 425.073 94.6199V67.1711C425.073 66.1202 423.871 65.2683 422.39 65.2673L295.774 65.2662Z" fill="#E6E6E6"/>
<path d="M324.403 79.5986C323.688 79.5995 323.003 79.883 322.498 80.3871C321.992 80.8913 321.708 81.5747 321.707 82.2876V101.111C321.708 101.824 321.992 102.507 322.498 103.011C323.003 103.515 323.688 103.799 324.403 103.8H420.913C421.628 103.799 422.313 103.515 422.818 103.011C423.324 102.507 423.608 101.824 423.609 101.111V82.2876C423.608 81.5747 423.324 80.8913 422.818 80.3871C422.313 79.883 421.628 79.5995 420.913 79.5986H324.403Z" fill="#DC9A48"/>
<path d="M337.882 97.8834C341.157 97.8834 343.813 95.2348 343.813 91.9676C343.813 88.7004 341.157 86.0518 337.882 86.0518C334.606 86.0518 331.951 88.7004 331.951 91.9676C331.951 95.2348 334.606 97.8834 337.882 97.8834Z" fill="white"/>
<path d="M364.911 89.4004C364.267 89.4004 363.65 89.6554 363.195 90.1092C362.74 90.5631 362.484 91.1786 362.484 91.8205C362.484 92.4623 362.74 93.0779 363.195 93.5318C363.65 93.9856 364.267 94.2406 364.911 94.2406H398.878C399.521 94.2406 400.138 93.9856 400.593 93.5318C401.048 93.0779 401.304 92.4623 401.304 91.8205C401.304 91.1786 401.048 90.5631 400.593 90.1092C400.138 89.6554 399.521 89.4004 398.878 89.4004H364.911Z" fill="white"/>
<path d="M327.497 33.7965H200.881C198.413 33.7965 196.413 32.3751 196.41 30.6235V3.17303C196.413 1.42141 198.413 0 200.881 0H327.497C329.965 0 331.966 1.42141 331.968 3.17303V30.6229C331.966 32.3746 329.965 33.7944 327.497 33.7965ZM200.881 1.26814C199.4 1.26814 198.2 2.12109 198.199 3.17195V30.6219C198.199 31.6727 199.4 32.5246 200.881 32.5257H327.497C328.978 32.5257 330.178 31.6727 330.18 30.6219V3.17303C330.18 2.12217 328.978 1.27029 327.497 1.26921L200.881 1.26814Z" fill="#E6E6E6"/>
<path d="M229.51 15.5996C228.796 15.6004 228.11 15.884 227.605 16.3881C227.1 16.8922 226.815 17.5757 226.814 18.2886V37.1117C226.815 37.8246 227.1 38.508 227.605 39.0122C228.11 39.5163 228.796 39.7998 229.51 39.8007H326.02C326.735 39.7998 327.42 39.5163 327.926 39.0122C328.431 38.508 328.715 37.8246 328.716 37.1117V18.2886C328.715 17.5757 328.431 16.8922 327.926 16.3881C327.42 15.884 326.735 15.6004 326.02 15.5996H229.51Z" fill="#DC9A48"/>
<path d="M242.989 33.8853C246.265 33.8853 248.92 31.2367 248.92 27.9695C248.92 24.7023 246.265 22.0537 242.989 22.0537C239.714 22.0537 237.059 24.7023 237.059 27.9695C237.059 31.2367 239.714 33.8853 242.989 33.8853Z" fill="white"/>
<path d="M270.018 25.4014C269.375 25.4014 268.757 25.6563 268.302 26.1102C267.847 26.5641 267.592 27.1796 267.592 27.8215C267.592 28.4633 267.847 29.0789 268.302 29.5327C268.757 29.9866 269.375 30.2416 270.018 30.2416H303.985C304.629 30.2416 305.246 29.9866 305.701 29.5327C306.156 29.0789 306.411 28.4633 306.411 27.8215C306.411 27.1796 306.156 26.5641 305.701 26.1102C305.246 25.6563 304.629 25.4014 303.985 25.4014H270.018Z" fill="white"/>
</g>
<defs>
<clipPath id="clip0_7_316">
<rect width="444" height="290" fill="white"/>
</clipPath>
</defs>
</svg>
